<svg xmlns="http://www.w3.org/2000/svg" viewBox="0 0 32.51 23.52"><defs><style>.cls-1{fill:#fff;stroke:#fff;stroke-miterlimit:10;stroke-width:0.77px;fill-rule:evenodd;}</style></defs><title>bbAsset 1</title><g id="Layer_2" data-name="Layer 2"><g id="Layer_1-2" data-name="Layer 1"><path class="cls-1" d="M32,17.29a14.55,14.55,0,0,1-1.81,5.57c-.16.3-.29.35-.6.16a20,20,0,0,0-1.82-1c-.41-.2-.42-.38-.22-.76a11.44,11.44,0,0,0-.3-11.8A12.89,12.89,0,0,0,14.1,3.55C8.59,4.58,4.44,8.6,3.65,13.73A11.44,11.44,0,0,0,5,21.26c.22.39.17.57-.23.76A16.94,16.94,0,0,0,3,23c-.34.21-.49.15-.68-.19A14,14,0,0,1,.44,14.68C1.07,8.18,4.57,3.6,11,1.32c9.22-3.3,19.36,2.49,21,11.8l.12.82A15.08,15.08,0,0,1,32,17.29Z"/><path class="cls-1" d="M16.34,10.54c.43,1.93.86,3.85,1.28,5.78a1.41,1.41,0,0,0,.57.92,2.86,2.86,0,0,1,.36,4.31,3.2,3.2,0,0,1-4.57,0,2.87,2.87,0,0,1,.35-4.32,1.44,1.44,0,0,0,.58-.91c.41-1.93.85-3.86,1.28-5.79Z"/><path class="cls-1" d="M14,8.65c0,.12,0,.19-.07.23-.43.18-.86.38-1.3.54-.2.08-.22-.12-.27-.24-.37-.87-.73-1.75-1.11-2.62-.1-.24,0-.34.17-.46,1.2-.66,1.23-.65,1.74.55C13.47,7.33,13.75,8,14,8.65Z"/><path class="cls-1" d="M15.4,6.82c0-.23,0-.47,0-.71s-.18-.88.11-1A4,4,0,0,1,16.9,5c.26,0,.23.19.23.34,0,1,0,1.9,0,2.85,0,.12.07.34-.14.33a13.45,13.45,0,0,0-1.42,0c-.22,0-.16-.19-.16-.31C15.39,7.77,15.4,7.3,15.4,6.82Z"/><path class="cls-1" d="M19.94,9.43l-1.39-.56c-.22-.09-.07-.24,0-.34l1.09-2.64c.09-.23.22-.33.46-.21l.06,0c1.26.41,1.26.41.76,1.6l-.77,1.86C20.07,9.29,20.05,9.45,19.94,9.43Z"/><path class="cls-1" d="M26.76,12.28c.1.34-.09.38-.23.44-.86.37-1.73.74-2.58,1.12-.24.1-.38.1-.43-.17,0-.08-.06-.15-.08-.22-.09-.38-.57-.74-.36-1s.69-.37,1.07-.53,1.07-.42,1.56-.69.58-.08.71.28S26.68,12.08,26.76,12.28Z"/><path class="cls-1" d="M6.42,11.22l.32.12,2.33,1s.13,0,.16.07c.47.58-.26.95-.29,1.45s-.29.16-.45.1l-2.55-1c-.27-.1-.35-.22-.22-.48s.25-.62.39-.93C6.16,11.35,6.2,11.19,6.42,11.22Z"/><path class="cls-1" d="M11.46,10.23c-.19.17-.38.32-.55.48-.71.68-.71.68-1.41,0-.49-.5-1-1-1.5-1.5-.2-.19-.2-.32,0-.54.89-1,.88-1,1.83-.1l1.37,1.38Z"/><path class="cls-1" d="M24.76,8.89l-.25.31c-.65.65-1.32,1.3-2,2-.21.22-.34.2-.52,0s-.85-.64-.84-1,.53-.64.84-1S22.9,8.39,23.31,8c.19-.19.32-.2.5,0Z"/></g></g></svg>