<svg xmlns="http://www.w3.org/2000/svg" viewBox="0 0 29.09 24.24"><defs><style>.cls-1{stroke:#000;stroke-miterlimit:10;stroke-width:0.2px;}</style></defs><title>bbAsset 2</title><g id="Layer_2" data-name="Layer 2"><g id="Layer_1-2" data-name="Layer 1"><path class="cls-1" d="M12.47,2.59a.38.38,0,0,0,.42-.35.58.58,0,0,0-.47-.52A.39.39,0,0,0,12,2.1.53.53,0,0,0,12.47,2.59Z"/><path class="cls-1" d="M23.49,13.58l.16-.14A5.76,5.76,0,0,1,24,14a3.25,3.25,0,0,1,.22.46h0l-.1,0h0l-.21-.35L23.75,14l-.22,0-.26.07a2.2,2.2,0,0,0,.12.24,1.53,1.53,0,0,1-.52-1.19,1,1,0,0,1,.86-.82l4.17-.26a1,1,0,0,1,1.09.83,1.33,1.33,0,0,1-.09.63Q28,15.4,27,17.24a1,1,0,0,1-1.73.1L25.08,17H25a1,1,0,0,0-.06.22v6.25c0,.24,0,.5-.29.61a.55.55,0,0,1-.22.06c-.78,0-1.56,0-2.34,0a.48.48,0,0,1-.51-.54V19.15a1.16,1.16,0,0,1-.76-.06c-.23-.1-.46-.18-.72-.28v4.78a.5.5,0,0,1-.54.54H17.32a.49.49,0,0,1-.56-.56V17.68a.22.22,0,0,0-.16-.25c-.37-.13-.73-.28-1.09-.42-.17-.07-.23,0-.23.16v6.35c0,.44-.18.61-.62.61H12.5c-.39,0-.58-.18-.58-.57V20.31l-.1.07-.68.65a1,1,0,0,1-.7.25v2.34a.48.48,0,0,1-.51.51c-.78,0-1.57,0-2.35,0a.48.48,0,0,1-.5-.52V20.43c0-.15,0-.2-.18-.24-.43-.12-.85-.26-1.29-.4a1.21,1.21,0,0,0,0,.18v3.6a.49.49,0,0,1-.56.56H2.83a.54.54,0,0,1-.59-.6c0-.35,0-.7,0-1a4.75,4.75,0,0,1-.51,0A.92.92,0,0,1,1,22.27a5.89,5.89,0,0,1-.74-.91,1.17,1.17,0,0,1,.28-1.55L4,17l.5-.41a.89.89,0,0,1,.9-.17l4.35,1.35a.22.22,0,0,0,.26-.06l4.14-4a.93.93,0,0,1,1.09-.21l5.68,2.21a.34.34,0,0,0,.22,0l1.26-.77.15-.06h0l-.31.21h.21c0,.07-.08.16-.06.19s.17.28.37.3l-1.61,1a.25.25,0,0,1-.17,0l-.79-.31c-1.73-.68-3.47-1.35-5.2-2a.29.29,0,0,0-.35.08l-4.42,4.25a.25.25,0,0,1-.29.08c-1.57-.5-3.14-1-4.71-1.47a.25.25,0,0,0-.29,0l-1.3,1.06L1.08,20.4a.43.43,0,0,0-.06.66l.38.48a.47.47,0,0,0,.75.07L5.3,19A.3.3,0,0,1,5.59,19c.77.25,1.55.48,2.33.72s1.65.51,2.47.78a.25.25,0,0,0,.28-.07l4.39-4.22a.24.24,0,0,1,.3-.07l5.75,2.26a.34.34,0,0,0,.35,0l2.41-1.51,1.43-.9.63.95c.14.21.33.2.44,0l1.81-3.62c.11-.22,0-.38-.24-.36l-.81,0-3.19.19c-.24,0-.3.08-.31.33l-.63.08v0c.06.07.11.18.18.2m-5.63,4.07v5.53h1.79v-4.7a.2.2,0,0,0-.09-.16C18.69,18.25,18.13,18,17.54,17.81Zm6.63-.16-1.67,1a.26.26,0,0,0-.13.25v4.41h1.8ZM12.71,23.34h1.77V17.88L12.81,19.5a.41.41,0,0,0-.11.26v3.43S12.71,23.28,12.71,23.34ZM7.87,20.5v2.84H9.65V21.13a.12.12,0,0,0-.08-.1ZM4.81,23.35V20.48c-.53.43-1,.85-1.54,1.25a.57.57,0,0,0-.25.53c0,.36,0,.72,0,1.09Z"/><path class="cls-1" d="M13.35,3.87a.33.33,0,0,1,.49.26,5,5,0,0,1-.74,4.06A5.17,5.17,0,0,0,12.24,11a1.83,1.83,0,0,1-.47,1.26.2.2,0,0,0,0,.13c0,.51,0,1,0,1.52a3,3,0,0,1-.5,1.22.3.3,0,0,1-.13.12,1.38,1.38,0,0,1-.47.16H6.94a.79.79,0,0,1-.75-.5c-.07-.15-.12-.31-.2-.46a1.36,1.36,0,0,1-.16-.68c0-.46,0-.93,0-1.39a.22.22,0,0,0-.06-.13A1.87,1.87,0,0,1,5.35,11,5.14,5.14,0,0,0,4.49,8.2a5.18,5.18,0,0,1-.85-2.37A5,5,0,0,1,5.21,1.55a5.06,5.06,0,0,1,4-1.44A4.85,4.85,0,0,1,10.7.46a.38.38,0,0,1,.24.52.39.39,0,0,1-.54.2A4.4,4.4,0,0,0,4.5,4.35a4.13,4.13,0,0,0,.57,3.28,6.4,6.4,0,0,1,1.07,3.49.92.92,0,0,0,1,.89H9.7c.32,0,.64,0,1,0a.9.9,0,0,0,.79-.89A6.18,6.18,0,0,1,12.5,7.68,4.17,4.17,0,0,0,13.19,5c0-.24-.06-.48-.1-.72a.36.36,0,0,1,.27-.44M6.64,12.77a2.85,2.85,0,0,0,.26,1.8.17.17,0,0,0,.14.07h3.45c.07,0,.17,0,.19-.05a2.25,2.25,0,0,0,.29-.68,10.84,10.84,0,0,0,0-1.14Z"/><path class="cls-1" d="M9.17,8.93c0,.1,0,.22,0,.33s-.09.25-.26.25a.22.22,0,0,1-.25-.24c0-.12,0-.24,0-.37A2.09,2.09,0,0,1,7.4,8.25,1.25,1.25,0,0,1,7,7.5c0-.22,0-.36.24-.39s.33,0,.39.27a1.16,1.16,0,0,0,1,.86V7.76c0-.55,0-1.11,0-1.66a.21.21,0,0,0-.14-.23A3.24,3.24,0,0,1,8,5.54,1.44,1.44,0,0,1,7.48,4,1.36,1.36,0,0,1,8.54,3l.13,0a2.8,2.8,0,0,1,0-.29.22.22,0,0,1,.25-.25.23.23,0,0,1,.25.25,2.8,2.8,0,0,1,0,.29,1.73,1.73,0,0,1,.9.41,1.19,1.19,0,0,1,.38.83.33.33,0,0,1-.23.36c-.2.06-.35,0-.38-.29a.79.79,0,0,0-.6-.66H9.17c0,.58,0,1.16,0,1.74,0,0,.07.12.12.14a3.89,3.89,0,0,1,1,.61,1.63,1.63,0,0,1-.52,2.65C9.59,8.81,9.4,8.85,9.17,8.93Zm0-2.73V8.26a1.05,1.05,0,0,0,.93-1A1.14,1.14,0,0,0,9.18,6.2ZM8.66,3.61a.72.72,0,0,0-.59.74.8.8,0,0,0,.59.83Z"/><path class="cls-1" d="M24.18,14.52h0l.05.05h0l-.06,0h0c0,.06,0,.14-.06.17l-.77.41-.07-.11-.13-.51.22-.19s.05-.06,0-.08a.23.23,0,0,1,.15-.26s0,.11,0,.13"/><path class="cls-1" d="M12.47,2.59A.53.53,0,0,1,12,2.1a.39.39,0,0,1,.42-.38.58.58,0,0,1,.47.52A.38.38,0,0,1,12.47,2.59Z"/><path class="cls-1" d="M23.25,15.06l.07.11s0,.1-.06.12l-.44.23.08-.11-.32-.55h0a.73.73,0,0,1,.57-.3l-.1.15h0s-.08.1-.07.12S23.08,15.07,23.25,15.06Z"/><path class="cls-1" d="M24.22,14.41l-.06.11h0l-.05-.07h0l.1,0Z"/><path class="cls-1" d="M24.23,14.41l-.1,0Z"/><polygon class="cls-1" points="24.15 14.59 24.15 14.6 24.14 14.59 24.15 14.59"/><path class="cls-1" d="M23,14.7h0Z"/><polygon class="cls-1" points="21.63 15.39 23.42 14.29 23.9 14.86 22.09 16.01 21.63 15.39"/><path class="cls-1" d="M23.63,13.41l.6,1a.65.65,0,0,1-.14.35l-.72-.45L23.13,14l-.23-.64Z"/></g></g></svg>