<svg xmlns="http://www.w3.org/2000/svg" viewBox="0 0 18 18"><defs><style>.cls-1{fill:#fff;}</style></defs><title>bbAsset 2</title><g id="Layer_2" data-name="Layer 2"><g id="Layer_1-2" data-name="Layer 1"><path class="cls-1" d="M17.28,1.25l-.09.14c-1.25,1.43-2.51,2.86-3.75,4.3a.48.48,0,0,0-.1.31q0,5.12,0,10.23A1.66,1.66,0,0,1,11.56,18H1.78A1.67,1.67,0,0,1,0,16.23V5.88a.82.82,0,0,1,.25-.61C1.94,3.6,3.62,1.91,5.3.22A.71.71,0,0,1,5.83,0H17.49l.23,0c.2,0,.28.14.28.36C18,3.93,18,7.49,18,11a2.84,2.84,0,0,1-.62,1.84Q16,14.62,14.54,16.34a.34.34,0,0,1-.48.07.35.35,0,0,1,0-.52c.87-1.07,1.74-2.14,2.62-3.2a2.68,2.68,0,0,0,.66-1.83c0-3.12,0-6.24,0-9.36V1.28ZM.67,6V16.29a1,1,0,0,0,1.06,1.05h9.85a1,1,0,0,0,1.08-1.09V6ZM16.91.69l-.07,0h-5.6A.33.33,0,0,0,11,.8Q9.27,3,7.53,5.17s-.07.1-.11.15l.08,0h5.23A.36.36,0,0,0,13,5.2c.75-.84,1.49-1.7,2.24-2.55Zm-6.65,0-.09,0H5.92a.36.36,0,0,0-.23.11L1.28,5.2s-.06.08-.11.14H6.45a.31.31,0,0,0,.19-.12c.57-.7,1.13-1.4,1.69-2.11Z"/><path class="cls-1" d="M17.28,1.25l-.09.14c-1.25,1.43-2.51,2.86-3.75,4.3a.48.48,0,0,0-.1.31q0,5.12,0,10.23A1.66,1.66,0,0,1,11.56,18H1.78A1.67,1.67,0,0,1,0,16.23V5.88a.82.82,0,0,1,.25-.61C1.94,3.6,3.62,1.91,5.3.22A.71.71,0,0,1,5.83,0H17.49l.23,0c.2,0,.28.14.28.36C18,3.93,18,7.49,18,11a2.84,2.84,0,0,1-.62,1.84Q16,14.62,14.54,16.34a.34.34,0,0,1-.48.07.35.35,0,0,1,0-.52c.87-1.07,1.74-2.14,2.62-3.2a2.68,2.68,0,0,0,.66-1.83c0-3.12,0-6.24,0-9.36V1.28ZM.67,6V16.29a1,1,0,0,0,1.06,1.05h9.85a1,1,0,0,0,1.08-1.09V6ZM16.91.69l-.07,0h-5.6A.33.33,0,0,0,11,.8Q9.27,3,7.53,5.17s-.07.1-.11.15l.08,0h5.23A.36.36,0,0,0,13,5.2c.75-.84,1.49-1.7,2.24-2.55Zm-6.65,0-.09,0H5.92a.36.36,0,0,0-.23.11L1.28,5.2s-.06.08-.11.14H6.45a.31.31,0,0,0,.19-.12c.57-.7,1.13-1.4,1.69-2.11Z"/><rect class="cls-1" x="6.28" y="7.64" width="0.66" height="7.65" rx="0.33" transform="translate(10.93 -1.04) rotate(49.02)"/><rect class="cls-1" x="6.28" y="7.64" width="0.66" height="7.65" rx="0.33" transform="translate(19.6 14) rotate(130.98)"/></g></g></svg>