<svg xmlns="http://www.w3.org/2000/svg" viewBox="0 0 30.2 30.2"><title>bbAsset 1</title><g id="Layer_2" data-name="Layer 2"><g id="Layer_1-2" data-name="Layer 1"><path d="M21.63,30.2c-.09-.64-.17-1.29-.28-1.93,0-.26-.68-.46-.93-.3l-1.51,1h-.06l-2-2c.31-.45.63-.94,1-1.43a.63.63,0,0,0-.45-1l-.83-.13-.8-.13V21.54l1.66-.27a.65.65,0,0,0,.44-1l-1-1.36,2-2,1.46,1a.63.63,0,0,0,1-.41c.09-.52.18-1,.3-1.53a.33.33,0,0,1,.24-.22c.73,0,1.47,0,2.21,0h.33c.09.57.18,1.13.26,1.68a.62.62,0,0,0,1.05.44l1.39-1c.6.6,1.2,1.19,1.78,1.8.05.05,0,.22,0,.3-.28.45-.58.89-.87,1.34a.64.64,0,0,0,.41.95l1.79.29v2.76l-1.74.31a.68.68,0,0,0-.39,1l1,1.43-2,2L25.6,28c-.24-.16-.82,0-.87.28-.13.63-.23,1.26-.34,1.88Zm1.15-13.12c-.09.53-.18,1.05-.28,1.57a.5.5,0,0,1-.17.28c-.52.21-1,.38-1.55.6a.5.5,0,0,1-.56-.07c-.41-.3-.83-.58-1.24-.87l-.4.38,1,1.38c-.22.64-.42,1.16-.57,1.7-.06.21-.12.3-.34.33-.52.08-1,.19-1.51.28-.14.42,0,.57.39.6s.69.14,1,.19a.45.45,0,0,1,.42.36,13.74,13.74,0,0,0,.56,1.38.39.39,0,0,1,0,.45c-.31.42-.59.85-.84,1.2l.34.47c.48-.32.93-.63,1.39-.92a.44.44,0,0,1,.32,0c.49.21,1,.46,1.48.65a.47.47,0,0,1,.34.45c0,.47.14.94.21,1.42h.52c.09-.52.2-1,.27-1.54a.41.41,0,0,1,.32-.38c.51-.19,1-.42,1.51-.6a.42.42,0,0,1,.34.06c.44.28.86.59,1.26.86l.45-.34c-.35-.47-.67-.9-1-1.33a.46.46,0,0,1-.06-.34c.21-.5.45-1,.65-1.49a.46.46,0,0,1,.4-.34c.36-.06.71-.15,1.07-.23s.46-.11.36-.62c-.49-.08-1-.17-1.5-.22a.42.42,0,0,1-.4-.33c-.18-.49-.4-1-.58-1.47a.43.43,0,0,1,.05-.35c.29-.44.59-.87.9-1.31L27,18.59c-.45.34-.87.66-1.31,1a.4.4,0,0,1-.34,0c-.47-.2-.93-.44-1.42-.62a.5.5,0,0,1-.39-.48c-.05-.47-.14-.94-.21-1.41Z"/><path d="M24.39,30.2c.11-.62.21-1.25.34-1.88.05-.26.63-.44.87-.28l1.54,1,2-2-1-1.43a.68.68,0,0,1,.39-1l1.74-.31V30.2Z"/><path d="M27.56,15.76c-.41-.21-.79-.4-1.15-.6a.34.34,0,0,1-.14-.22,1.4,1.4,0,0,1,0-.29V1.34H1.33V26.27H14.6c.35,0,.59.06.71.43a6,6,0,0,0,.45.87l-.33,0q-7.27,0-14.55,0c-.65,0-.88-.22-.88-.87V.86C0,.23.23,0,.85,0H26.73c.59,0,.85.24.85.79V15.57S27.57,15.67,27.56,15.76Z"/><path d="M13.78,3.28c.86,0,1.72,0,2.58,0a2,2,0,0,1,2,2,2.17,2.17,0,0,1-2,2c-1.75,0-3.49,0-5.23,0A1.85,1.85,0,0,1,9.43,5.85,1.77,1.77,0,0,1,10.6,3.38a3.15,3.15,0,0,1,.75-.1ZM11.29,4.6c-.5,0-.78.25-.77.67s.27.63.75.64h5c.45,0,.7-.18.78-.51a.67.67,0,0,0-.72-.81h-2.5"/><path d="M23,20.3a2.63,2.63,0,1,1-2.63,2.63A2.63,2.63,0,0,1,23,20.3ZM21.67,23a1.31,1.31,0,1,0,2.62,0A1.28,1.28,0,0,0,23,21.67,1.31,1.31,0,0,0,21.67,23Z"/></g></g></svg>