<svg xmlns="http://www.w3.org/2000/svg" viewBox="0 0 28.86 33.8"><defs><style>.cls-1{fill:#fff;stroke:#fff;stroke-miterlimit:10;stroke-width:0.5px;}</style></defs><title>bbAsset 3</title><g id="Layer_2" data-name="Layer 2"><g id="Layer_1-2" data-name="Layer 1"><path class="cls-1" d="M12.56.25a7.38,7.38,0,0,1,.78.3,2.53,2.53,0,0,1,1.27,1.78h3.27V4H24V18.17a.4.4,0,0,0,.31.46,6.85,6.85,0,0,1,2.06,1.2l-.58.55a.47.47,0,0,0-.08.67.46.46,0,0,0,.69-.05c.19-.18.36-.37.56-.57a6.77,6.77,0,0,1,1.67,3.9h-.74c-.4,0-.6.17-.6.47s.21.47.62.47h.67a7.17,7.17,0,0,1-1.62,4l-.56-.58a.45.45,0,1,0-.61.63c.17.17.36.34.6.55a11.41,11.41,0,0,1-1,.67,9,9,0,0,1-1.17.56.33.33,0,0,0-.25.37c0,.7,0,1.41,0,2.11H.27c0-.11,0-.22,0-.32V4.37c0-.11,0-.23,0-.39H6.45V2.33H9.61c.23-.42.4-.82.64-1.17A2.48,2.48,0,0,1,11.78.25ZM1.08,32.75H23.21V31.38l-.76.12v-.81c0-.32-.19-.52-.46-.52a.46.46,0,0,0-.46.51c0,.27,0,.54,0,.84a6.85,6.85,0,0,1-4-1.62l.59-.54a.49.49,0,0,0,.09-.69.47.47,0,0,0-.69,0c-.19.18-.36.37-.56.57a6.77,6.77,0,0,1-1.67-3.92h.78c.38,0,.57-.17.56-.47s-.2-.45-.56-.46h-.78a6.85,6.85,0,0,1,1.63-4c.2.21.36.4.54.57a.47.47,0,0,0,.69.07.5.5,0,0,0-.08-.7c-.18-.18-.37-.34-.57-.52a6.53,6.53,0,0,1,3.93-1.69c0,.29,0,.56,0,.83a.48.48,0,0,0,.46.52A.47.47,0,0,0,22.4,19v-.85l.81.14V4.81H17.87v.94H6.43V4.81H1.08Zm15.13-6.64L17,28c.75-.44,1.32-.46,1.74,0a1.58,1.58,0,0,1,.36.66,1.34,1.34,0,0,1-.34,1.16l1.93.8c.31-.93.65-1.24,1.26-1.24s1,.35,1.25,1.18a5.52,5.52,0,0,0,1.9-.81,1.31,1.31,0,0,1,0-1.67c.4-.43,1-.47,1.84-.06l.81-1.92c-.88-.23-1.23-.6-1.24-1.22s.36-1,1.18-1.27a5.46,5.46,0,0,0-.82-1.9,1.28,1.28,0,0,1-1.69,0c-.46-.43-.49-1-.06-1.76a4.6,4.6,0,0,0-1.91-.79c-.22.81-.6,1.17-1.21,1.18s-1-.38-1.26-1.18a5.19,5.19,0,0,0-1.91.8c.4.64.44,1.2.06,1.61-.54.6-1.18.51-1.89.11l-.8,1.93c.87.22,1.23.58,1.25,1.2S17.11,25.86,16.21,26.11Zm-9-21.2H17V3H13.84c-.16-1.36-.65-2-1.63-2a2.12,2.12,0,0,0-1.06.3,1.81,1.81,0,0,0-.77,1.82H7.18Z"/><path class="cls-1" d="M3.38,21.82V16.25H9v5.57Zm.78-.72H8.23V17H4.16Z"/><path class="cls-1" d="M3.39,24.51H9v5.58H3.39Zm4.85.73H4.16v4.07H8.24Z"/><path class="cls-1" d="M3.39,8.27H6.15V9h-2v4.05H8.25v-2H9v2.77H3.39Z"/><path class="cls-1" d="M20.52,10.94v.74h-8.8v-.74Z"/><path class="cls-1" d="M6.52,11.78,5,10.27l.51-.47,1,.92L9.39,7.91l.41.44Z"/><path class="cls-1" d="M17,18.69v.73H11.71v-.73Z"/><path class="cls-1" d="M14.77,26.92a.2.2,0,0,1,0,.08c.07.67.07.67-.6.67H11.71v-.75Z"/><path class="cls-1" d="M22,27.93a3.13,3.13,0,0,1-3.1-3.21,3.06,3.06,0,0,1,3-2.94A3.15,3.15,0,0,1,25,25,3.06,3.06,0,0,1,22,27.93Zm2.23-3a2.32,2.32,0,0,0-2.3-2.33,2.29,2.29,0,0,0-2.29,2.25,2.31,2.31,0,0,0,2.3,2.33A2.29,2.29,0,0,0,24.23,24.9Z"/><path class="cls-1" d="M12.5,2.51v.73h-.72C11.61,2.52,11.7,2.42,12.5,2.51Z"/></g></g></svg>