<svg xmlns="http://www.w3.org/2000/svg" viewBox="0 0 28.32 33.3"><title>bbAsset 1</title><g id="Layer_2" data-name="Layer 2"><g id="Layer_1-2" data-name="Layer 1"><path d="M12.29,0a6.62,6.62,0,0,1,.78.3,2.51,2.51,0,0,1,1.27,1.78h3.27V3.74h6.08V4.2c0,4.57,0,9.14,0,13.72a.41.41,0,0,0,.31.46,6.85,6.85,0,0,1,2.06,1.2l-.58.55a.47.47,0,0,0-.07.67.46.46,0,0,0,.69-.05l.55-.57a6.71,6.71,0,0,1,1.67,3.9h-.74c-.4,0-.6.17-.6.47s.22.47.62.47h.67a7.17,7.17,0,0,1-1.62,4c-.2-.21-.37-.4-.56-.58a.46.46,0,0,0-.66-.06.47.47,0,0,0,.05.69l.6.55a11.34,11.34,0,0,1-1,.67,10.45,10.45,0,0,1-1.17.56.32.32,0,0,0-.26.37c0,.7,0,1.41,0,2.11H0c0-.11,0-.22,0-.32V4.12C0,4,0,3.89,0,3.73H6.18V2.08H9.35A11.59,11.59,0,0,1,10,.91,2.51,2.51,0,0,1,11.51,0ZM.82,32.5H23V31.13l-.77.12v-.42c0-.13,0-.26,0-.39,0-.32-.19-.52-.46-.52a.46.46,0,0,0-.46.51c0,.27,0,.54,0,.84a6.79,6.79,0,0,1-4-1.62l.58-.54a.48.48,0,0,0,.09-.69.47.47,0,0,0-.69,0l-.55.57a6.7,6.7,0,0,1-1.67-3.92h.77c.38,0,.57-.17.57-.47s-.21-.45-.56-.46h-.79a6.86,6.86,0,0,1,1.64-4c.2.21.36.4.53.57a.48.48,0,0,0,.7.07.51.51,0,0,0-.09-.7c-.18-.18-.37-.34-.57-.52A6.55,6.55,0,0,1,21.2,18v.83a.48.48,0,0,0,.47.52.47.47,0,0,0,.46-.51c0-.27,0-.54,0-.85l.81.14V4.56H17.6V5.5H6.17V4.56H.82ZM16,25.86l.81,1.92c.76-.44,1.32-.46,1.74,0a1.58,1.58,0,0,1,.36.66,1.28,1.28,0,0,1-.34,1.16l1.94.8c.3-.93.64-1.24,1.26-1.24s1,.35,1.24,1.18a5.57,5.57,0,0,0,1.91-.81,1.28,1.28,0,0,1,0-1.67c.39-.43,1-.47,1.83-.06l.81-1.92c-.88-.23-1.23-.6-1.24-1.22s.37-1,1.18-1.27a5.26,5.26,0,0,0-.81-1.9,1.28,1.28,0,0,1-1.69,0c-.47-.43-.5-1-.07-1.76A4.6,4.6,0,0,0,23,18.91c-.22.81-.6,1.17-1.21,1.18s-1-.38-1.25-1.18a5.23,5.23,0,0,0-1.92.8c.41.64.45,1.2.07,1.61-.55.6-1.19.51-1.9.11L16,23.36c.86.22,1.22.58,1.24,1.2S16.84,25.61,16,25.86Zm-9-21.2h9.85V2.79H13.58c-.16-1.36-.66-2-1.64-2a2.12,2.12,0,0,0-1.06.3,1.81,1.81,0,0,0-.77,1.82H6.91Z"/><path d="M3.12,21.57V16H8.7v5.57Zm.78-.72H8V16.78H3.9Z"/><path d="M3.12,24.26H8.69v5.58H3.12ZM8,25H3.9v4.07H8Z"/><path d="M3.13,8H5.88v.76h-2v4.05H8v-2h.7v2.77H3.13Z"/><path d="M20.25,10.69v.74h-8.8v-.74Z"/><path d="M6.25,11.53,4.74,10l.52-.47,1,.92L9.12,7.66l.41.44Z"/><path d="M16.7,18.44v.73H11.44v-.73Z"/><path d="M14.5,26.67s0,.06,0,.08c.06.67.06.67-.61.67H11.45v-.75Z"/><path d="M21.73,27.68a3.13,3.13,0,0,1-3.1-3.21,3.06,3.06,0,0,1,3-2.94,3.14,3.14,0,0,1,3.12,3.2A3.05,3.05,0,0,1,21.73,27.68Zm2.23-3a2.31,2.31,0,0,0-2.29-2.33,2.28,2.28,0,0,0-2.29,2.25,2.31,2.31,0,0,0,2.29,2.33A2.29,2.29,0,0,0,24,24.65Z"/><path d="M12.23,2.26V3h-.72C11.34,2.27,11.43,2.17,12.23,2.26Z"/></g></g></svg>