<svg xmlns="http://www.w3.org/2000/svg" viewBox="0 0 28.5 28.09"><defs><style>.cls-1{fill:#fff;}</style></defs><title>bbAsset 2</title><g id="Layer_2" data-name="Layer 2"><g id="Layer_1-2" data-name="Layer 1"><path class="cls-1" d="M16.45,16.6l-1.53,1.49c-2.34,2.34-4.69,4.67-7,7a1.1,1.1,0,0,1-.9.37c-2,0-4,0-6,0a.93.93,0,0,1-1-1c0-1,0-2.05,0-3.08a.93.93,0,0,1,.64-.94,40.37,40.37,0,0,0,6-3c.63-.4,1.22-.85,1.82-1.3a6,6,0,0,0,.51-.5,1.4,1.4,0,0,0,.27-1.2.36.36,0,0,0-.1-.18,8.33,8.33,0,0,1-1.68-3.16.75.75,0,0,0-.21-.34,2.14,2.14,0,0,1-.36-2.74A.73.73,0,0,0,7,7.69c0-1,0-1.9,0-2.85a5.25,5.25,0,0,1,.77-2.78A4,4,0,0,1,10,.37a7.23,7.23,0,0,1,4.64,0,3.94,3.94,0,0,1,2.74,3.49,32.38,32.38,0,0,1,.11,3.27,2.25,2.25,0,0,0,.25,1.18,2.08,2.08,0,0,1-.46,2.44.93.93,0,0,0-.23.38,8.31,8.31,0,0,1-1.68,3.14,1.23,1.23,0,0,0,0,1.19C15.71,15.86,16.06,16.2,16.45,16.6Z"/><path class="cls-1" d="M23.93,19.66a5,5,0,0,1-2.11-.34.31.31,0,0,0-.4.09l-2,2a.55.55,0,0,1-.45.17c-.73,0-1.45,0-2.18,0-.22,0-.3,0-.33.27-.13,1-.28,2-.41,3a.31.31,0,0,1-.3.33c-.75.13-1.49.3-2.24.43a.37.37,0,0,0-.34.31c-.16.65-.34,1.29-.5,1.93a.26.26,0,0,1-.28.24L10,28.09a.3.3,0,0,1-.23-.16c-.2-.42-.36-.85-.55-1.27a.31.31,0,0,1,.08-.42l3.4-3.39c2.07-2.07,4.13-4.14,6.21-6.2a.35.35,0,0,0,.08-.41,4.86,4.86,0,0,1,3.23-6.11,4.87,4.87,0,1,1,2.53,9.41A7.59,7.59,0,0,1,23.93,19.66ZM25,12.23a1.17,1.17,0,0,0-1.18,1.16A1.18,1.18,0,0,0,25,14.58a1.19,1.19,0,0,0,1.18-1.17A1.17,1.17,0,0,0,25,12.23Z"/><path class="cls-1" d="M24.51,21.39c0,.11,0,.19,0,.27v2.87a.86.86,0,0,1-.93.95H17.76c0-.37.09-.73.14-1.08s.09-.52.11-.79.09-.27.29-.25.56,0,.84,0a1.8,1.8,0,0,0,1.43-.58l1.35-1.37a.37.37,0,0,1,.36-.11,6,6,0,0,0,2.07.09Z"/></g></g></svg>