<svg xmlns="http://www.w3.org/2000/svg" viewBox="0 0 27.45 31.36"><defs><style>.cls-1{fill:#fff;}</style></defs><title>bbAsset 2</title><g id="Layer_2" data-name="Layer 2"><g id="Layer_1-2" data-name="Layer 1"><path class="cls-1" d="M26.28,31.36H5.09a1.75,1.75,0,0,1-1.18-2c0-1.83,0-3.66,0-5.48v-.35l-.11,0H1.52A1.48,1.48,0,0,1,0,22c0-2.6,0-5.21,0-7.81a1.46,1.46,0,0,1,1.5-1.49H3.92V1.57a1.48,1.48,0,0,1,1-1.48L5.09,0H19.3c.09.08.18.15.27.24l7.55,7.55a1,1,0,0,1,.33.77q0,6.69,0,13.37v7.84a1.46,1.46,0,0,1-1.07,1.52Zm.18-22.54H20.24a1.51,1.51,0,0,1-1.62-1.63V1H5.47c-.4,0-.57.18-.57.59V12.73h.43c4.21,0,8.41,0,12.62,0a1.62,1.62,0,0,1,1.66,1.68c0,2.48,0,5,0,7.44a1.54,1.54,0,0,1-1.69,1.68H4.9v6.24c0,.47.15.62.62.62H25.77c.57,0,.69-.12.69-.7V8.82ZM9.82,13.71H1.67c-.56,0-.69.14-.69.71v7.47c0,.49.15.65.64.65H18c.44,0,.62-.19.62-.63V14.37c0-.48-.17-.66-.66-.66ZM25.61,7.84l-6-6c0,1.8,0,3.67,0,5.53a.47.47,0,0,0,.5.48Z"/><path class="cls-1" d="M8.82,19.63c0,.46,0,.91,0,1.36s-.18.57-.49.58-.49-.21-.49-.57V15.27a.49.49,0,0,1,.57-.56,6.48,6.48,0,0,1,1.46.08,2.33,2.33,0,0,1,1.81,1.76A2.39,2.39,0,0,1,11,18.93a1.13,1.13,0,0,1-.18.12c.31.63.62,1.2.88,1.8a.65.65,0,0,1,0,.53.59.59,0,0,1-.48.16.68.68,0,0,1-.36-.33c-.26-.48-.51-1-.74-1.47a.27.27,0,0,0-.35-.19C9.43,19.6,9.14,19.6,8.82,19.63Zm0-3.93v2.9a1.58,1.58,0,0,0,1.74-.71,1.33,1.33,0,0,0,0-1.47A1.6,1.6,0,0,0,8.84,15.7Z"/><path class="cls-1" d="M3.93,19.6V21c0,.36-.19.57-.49.57S3,21.36,3,21c0-1.91,0-3.81,0-5.72,0-.38.18-.58.56-.56a6.8,6.8,0,0,1,1.57.12,2.38,2.38,0,0,1,1.75,2.58A2.44,2.44,0,0,1,4.44,19.6Zm0-3.9v2.89a1.53,1.53,0,0,0,1.69-.66,1.37,1.37,0,0,0,0-1.56A1.55,1.55,0,0,0,4,15.7Z"/><path class="cls-1" d="M13.73,15.68v2h1.42a.48.48,0,0,1,.46.73.73.73,0,0,1-.46.23c-.46,0-.92,0-1.41,0,0,.12,0,.23,0,.34V21c0,.25-.11.47-.36.5a.8.8,0,0,1-.51-.17c-.08-.05-.11-.22-.11-.33V15.22a.48.48,0,0,1,.52-.52h2.88a.49.49,0,1,1,0,1H13.73Z"/></g></g></svg>