<svg xmlns="http://www.w3.org/2000/svg" viewBox="0 0 23.13 29.08"><defs><style>.cls-1{fill:#fff;}</style></defs><title>bbAsset 2</title><g id="Layer_2" data-name="Layer 2"><g id="Layer_1-2" data-name="Layer 1"><path class="cls-1" d="M0,14.5V1.2C0,.1.1,0,1.16,0H22c1,0,1.16.12,1.16,1.12V28c0,1-.13,1.12-1.16,1.12H1.16C.1,29.08,0,29,0,27.87ZM1.36,27.7H21.74V1.37H1.36Z"/><path class="cls-1" d="M11.59,16.85a6.94,6.94,0,1,1,6.91-7A7,7,0,0,1,11.59,16.85Zm0-12.55A5.62,5.62,0,1,0,17.18,10,5.62,5.62,0,0,0,11.62,4.3Z"/><path class="cls-1" d="M11.63,18.84h5.85c.5,0,1,0,1,.68s-.53.65-1,.65H5.67c-.48,0-1,0-1-.64s.55-.69,1.06-.69Z"/><path class="cls-1" d="M11.48,21.81h6c.5,0,1,0,1,.69s-.49.63-1,.63H5.57c-.48,0-.93-.05-.94-.65s.43-.67.91-.67Z"/><path class="cls-1" d="M11.57,24.78H17.5c.51,0,1,0,1,.7s-.49.63-1,.63h-12c-.47,0-.93-.06-.93-.66s.44-.67.92-.67Z"/><path class="cls-1" d="M11.62,4.3A5.62,5.62,0,1,1,6,9.86,5.61,5.61,0,0,1,11.62,4.3Zm.7,2.31.1-.15c-.27-.28-.51-.72-.83-.8-.5-.13-.65.32-.72.78,0,.14-.3.26-.48.36a2,2,0,0,0-1.13,2,1.9,1.9,0,0,0,1.41,1.65c.36.12.79.06,1.12.21a3.07,3.07,0,0,1,.76.69c-.27.2-.53.52-.82.57-.59.09-1.22,0-1.8.06-.26,0-.45.43-.67.66.21.21.4.5.66.6a1.44,1.44,0,0,0,.65,0c.41.43.64.88,1,1,.5.12.65-.33.73-.79,0-.14.3-.25.48-.35a2,2,0,0,0,1.13-1.87,1.84,1.84,0,0,0-1.34-1.71c-.38-.14-.83-.07-1.2-.23s-.5-.46-.75-.7c.27-.2.53-.52.83-.56.59-.09,1.21,0,1.8-.07.25,0,.44-.43.66-.66-.22-.21-.4-.49-.66-.59A2.39,2.39,0,0,0,12.32,6.61Z"/><path class="cls-1" d="M12.32,6.61a2.39,2.39,0,0,1,.89,0c.26.1.44.38.66.59-.22.23-.41.62-.66.66-.59.11-1.21,0-1.8.07-.3,0-.56.36-.83.56.25.24.46.57.75.7s.82.09,1.2.23a1.84,1.84,0,0,1,1.34,1.71A2,2,0,0,1,12.74,13c-.18.1-.46.21-.48.35-.08.46-.23.91-.73.79-.32-.08-.55-.53-1-1a1.44,1.44,0,0,1-.65,0c-.26-.1-.45-.39-.66-.6.22-.23.41-.62.67-.66.58-.1,1.21,0,1.8-.06.29,0,.55-.37.82-.57a3.07,3.07,0,0,0-.76-.69c-.33-.15-.76-.09-1.12-.21A1.9,1.9,0,0,1,9.26,8.75,2,2,0,0,1,10.39,6.8c.18-.1.46-.22.48-.36.07-.46.22-.91.72-.78.32.08.56.52.83.8Z"/></g></g></svg>