<svg id="Layer_1" data-name="Layer 1" xmlns="http://www.w3.org/2000/svg" viewBox="0 0 510.82 510.83"><defs><style>.cls-1{fill:#fff;stroke:#000;stroke-miterlimit:10;stroke-width:10px;}</style></defs><title>vendor_icon</title><path class="cls-1" d="M-376.7-29.47c-20.9,3.3-37.7,11.8-52.4,26.4-46.5,46.7-42.5,128.3,8.4,168.8,8.8,7,22.9,14.1,33.7,16.9,11.7,3.1,30.9,3.1,42.5.1,35.9-9.5,62.8-39.5,72.2-80.7,2.7-11.7,2.9-36.2.4-47.5-9.4-42.3-36.4-72.6-73.2-82C-353.8-29.77-369-30.67-376.7-29.47Z" transform="translate(570 35)"/><path class="cls-1" d="M-458.5,192c-47.7,12.4-84.2,46-99.5,91.8-6.5,19.5-6.9,23.9-7,75.2v46l126.9.3c112.2.2,126.8,0,126.2-1.3-1.3-3.5-5.6-18.5-6.8-24-.8-3.9-1.3-13.1-1.3-26.5,0-18.8.3-21.4,2.7-31,5.6-22.1,12.6-36.5,26.4-54.6,15.6-20.2,41-38.4,64.4-45.9a34.59,34.59,0,0,0,6.3-2.5c2-1.8-21-15.7-35.5-21.5-8.7-3.5-28.4-8.8-29.7-8.1-.3.2-11,27-23.6,59.5s-23.2,59.1-23.5,59.1-4-16.3-8.4-36.1l-7.8-36.2,11.6-11.6,11.6-11.6-9.3-9.3-9.2-9.2h-45l-9.2,9.2-9.3,9.3,11.8,12,11.9,12-7.7,35c-4.2,19.2-7.9,35.6-8.1,36.3s-11-25.7-23.8-58.8-23.9-60-24.5-60S-453.3,190.73-458.5,192Z" transform="translate(570 35)"/><path class="cls-1" d="M-197.5,237.63c-14,1.8-32.2,8.3-44.8,16-63.8,39.1-75.2,128.2-23.3,181.7,22.6,23.3,51.8,35.5,84.6,35.5,32.4,0,59.6-11.2,82.6-34.2,17.8-17.9,28-37.3,33-63.2,1.8-9.4,1.6-30.7-.5-41.2C-77.9,270.33-134.7,229.53-197.5,237.63Zm27,44.3v7.3l7.3.6c12.1.9,20.9,6.3,25.9,16,1.6,3.1,2.3,6.5,2.6,13.4l.4,9.3h-24.2v-4.9c0-8.1,0-8.1-23.9-8.1-14.8,0-21,.3-21.9,1.2-1.9,1.9-1.6,22.2.4,24.2,1.3,1.4,5,1.6,24.7,1.6,26.1,0,28.5.6,36,7.8,7.3,7,8.1,9.7,8.5,27.4.4,18.2-.6,22.9-6.4,29.7s-11.3,9.4-21.1,9.9l-8.3.5v14.7h-25v-15h-6.9c-5.9,0-7.9-.5-13.2-3.3-10.5-5.4-15.9-14.9-15.9-27.9v-5.8h25V386c0,4.3.4,5.6,1.9,6.5,1.2.6,10.1,1,22,1,24.3,0,23.1.7,23.1-14.4,0-14.4,1.6-13.6-25.6-13.6-19.9,0-22.9-.2-27.7-2-6.3-2.4-12.7-8.4-15.9-14.9-2.1-4.2-2.3-6-2.3-21.1,0-15.9.1-16.7,2.7-21.5,5.3-10,13.6-15.2,25.8-16.2l7-.6v-6.7c0-3.7.3-7,.7-7.3s6-.7,12.5-.7h11.8Z" transform="translate(570 35)"/></svg>