<svg xmlns="http://www.w3.org/2000/svg" viewBox="0 0 17 17"><defs><style>.cls-1{fill:none;stroke:#07c;stroke-miterlimit:10;}</style></defs><title>bbAsset 1</title><g id="Layer_2" data-name="Layer 2"><g id="Layer_1-2" data-name="Layer 1"><path class="cls-1" d="M8.53.5c2.2,0,4.4,0,6.6,0a1.24,1.24,0,0,1,1.25.64,1.24,1.24,0,0,1-.25,1.39l-4.58,6.1a.89.89,0,0,0-.2.58c0,1.24,0,2.48,0,3.72a1.25,1.25,0,0,1-.61,1.16c-1.09.71-2.16,1.43-3.24,2.16a1.13,1.13,0,0,1-1.27.1,1.16,1.16,0,0,1-.6-1.12c0-2,0-4,0-6a.93.93,0,0,0-.21-.62Q3.12,5.52.8,2.42A1.15,1.15,0,0,1,.74.94a1.21,1.21,0,0,1,1-.44C4,.51,6.27.5,8.53.5Z"/></g></g></svg>