<svg xmlns="http://www.w3.org/2000/svg" viewBox="0 0 18.51 18.51"><defs><style>.cls-1{fill:#f15a24;stroke:#f15a24;stroke-miterlimit:10;stroke-width:0.5px;}</style></defs><title>bbAsset 3</title><g id="Layer_2" data-name="Layer 2"><g id="Layer_1-2" data-name="Layer 1"><path class="cls-1" d="M7.69,18.26a2,2,0,0,1-2-2V11.61a.4.4,0,1,1,.79,0V16.3a1.17,1.17,0,0,0,1.17,1.18h8.62a1.18,1.18,0,0,0,1.17-1.18V2.21A1.18,1.18,0,0,0,16.31,1H7.69A1.17,1.17,0,0,0,6.52,2.21v4.7a.4.4,0,0,1-.79,0V2.21a2,2,0,0,1,2-2h8.62a2,2,0,0,1,2,2V16.3a2,2,0,0,1-2,2Z"/><path class="cls-1" d="M.64,9.65a.4.4,0,0,1-.39-.39.39.39,0,0,1,.39-.39H13.17a.38.38,0,0,1,.39.39.39.39,0,0,1-.39.39Z"/><path class="cls-1" d="M3,12a.39.39,0,0,1-.28-.12L.36,9.53A.39.39,0,0,1,.36,9L2.71,6.63a.4.4,0,0,1,.56,0,.39.39,0,0,1,0,.55L1.2,9.26l2.07,2.07A.4.4,0,0,1,3,12Z"/></g></g></svg>